<?xml version="1.0" encoding="UTF-8" standalone="no"?>
<!-- Created with Inkscape (http://www.inkscape.org/) -->

<svg
   width="210mm"
   height="297mm"
   viewBox="0 0 210 297"
   version="1.1"
   id="svg5"
   inkscape:version="1.1.2 (0a00cf5339, 2022-02-04)"
   sodipodi:docname="design.svg"
   xmlns:inkscape="http://www.inkscape.org/namespaces/inkscape"
   xmlns:sodipodi="http://sodipodi.sourceforge.net/DTD/sodipodi-0.dtd"
   xmlns="http://www.w3.org/2000/svg"
   xmlns:svg="http://www.w3.org/2000/svg">
  <sodipodi:namedview
     id="namedview7"
     pagecolor="#ffffff"
     bordercolor="#666666"
     borderopacity="1.0"
     inkscape:pageshadow="2"
     inkscape:pageopacity="0.0"
     inkscape:pagecheckerboard="0"
     inkscape:document-units="mm"
     showgrid="false"
     showguides="true"
     inkscape:guide-bbox="true"
     inkscape:lockguides="true"
     inkscape:zoom="0.4302629"
     inkscape:cx="-297.49253"
     inkscape:cy="348.62406"
     inkscape:window-width="1916"
     inkscape:window-height="988"
     inkscape:window-x="0"
     inkscape:window-y="27"
     inkscape:window-maximized="1"
     inkscape:current-layer="layer1" />
  <defs
     id="defs2" />
  <g
     inkscape:label="Layer 1"
     inkscape:groupmode="layer"
     id="layer1">
    <path
       id="path3063-1"
       style="fill:#27273a;fill-opacity:1;stroke-width:0.114067"
       d="m 103.35814,136.01542 a 20,20 0 0 0 -0.11876,-0.10999 l -14.058685,14.0587 -14.02507,-14.02508 a 20,20 0 0 0 -0.0818,0.0761 20,20 0 0 0 3.7e-4,28.28438 20,20 0 0 0 28.283995,-1e-5 20,20 0 0 0 1e-5,-28.284 z" />
    <path
       id="path3063-1-2"
       style="fill:#3b3c58;fill-opacity:1;stroke-width:0.171099"
       d="m 110.42914,128.94369 a 30,30 0 0 0 -0.11839,-0.10963 l -5.30425,5.30426 a 22.5,22.5 0 0 1 0.11909,0.10892 22.5,22.5 0 0 1 3.7e-4,31.82006 22.5,22.5 0 0 1 -31.820055,-3.7e-4 22.5,22.5 0 0 1 0,-31.8197 22.5,22.5 0 0 1 0.0825,-0.0754 l -5.30353,-5.30352 a 30,30 0 0 0 -0.0818,0.0761 30,30 0 0 0 0,42.42601 30,30 0 0 0 42.426375,3.7e-4 30,30 0 0 0 0,-42.42675 z" />
    <path
       id="path3063-1-7"
       style="fill:#505177;fill-opacity:1;stroke-width:0.228132"
       d="m 117.50051,121.87305 a 39.999999,39.999999 0 0 0 -56.568745,0 39.999999,39.999999 0 0 0 -0.10962,56.44963 l 5.30353,-5.30353 a 32.500001,32.500001 0 0 1 0.10926,-45.84294 32.500001,32.500001 0 0 1 45.962415,1e-5 32.500001,32.500001 0 0 1 0.0775,45.88203 l 5.30316,5.30316 a 39.999999,39.999999 0 0 0 -0.0775,-56.48836 z" />
    <path
       id="path3063-1-7-0"
       style="fill:#646695;fill-opacity:1;stroke-width:0.285165"
       d="m 124.57151,114.80205 a 50,50 0 0 0 -70.710735,0 50,50 0 0 0 -0.10999,70.59199 l 5.30352,-5.30352 a 42.499999,42.499999 0 0 1 0.10999,-59.98494 42.499999,42.499999 0 0 1 60.103695,0 42.499999,42.499999 0 0 1 0.076,60.02184 l 5.30535,5.30536 a 50,50 0 0 0 -0.0778,-70.63073 z" />
  </g>
</svg>
